/* XPM */
static char *php_icon___[] = {
/* columns rows colors chars-per-pixel */
"64 64 216 2",
"   c #070707",
".  c #0B0B0B",
"X  c #1B1B1B",
"o  c #212121",
"O  c #353535",
"+  c #3C3C3C",
"@  c #443E54",
"#  c #463B5E",
"$  c #493F5F",
"%  c #46346C",
"&  c #49366F",
"*  c #49327B",
"=  c #444444",
"-  c #4C4C4C",
";  c #4E4E50",
":  c #535353",
">  c #575658",
",  c #5C5C5C",
"<  c #4E406C",
"1  c #52456E",
"2  c #5E5B61",
"3  c #564A70",
"4  c #594E72",
"5  c #615F66",
"6  c #645B6F",
"7  c #685E71",
"8  c #636363",
"9  c #66626A",
"0  c #6B6B6B",
"q  c #696372",
"w  c #6D6973",
"e  c #747474",
"r  c #7B7B7B",
"t  c #4C3480",
"y  c #4F3882",
"u  c #553D8A",
"i  c #4B2796",
"p  c #4E2A99",
"a  c #553697",
"s  c #57369C",
"d  c #5A399C",
"f  c #4E1FAE",
"g  c #4F27A1",
"h  c #4E20AF",
"j  c #522AA4",
"k  c #5D3BA1",
"l  c #4F20B1",
"z  c #5321B4",
"x  c #5824B7",
"c  c #5928B7",
"v  c #5723B8",
"b  c #5A25B9",
"n  c #5E29BB",
"m  c #603EA4",
"M  c #622ABD",
"N  c #6532BC",
"B  c #6935BE",
"V  c #6B38BE",
"C  c #59418C",
"Z  c #7A5D9B",
"A  c #796196",
"S  c #7E6C95",
"D  c #7C639D",
"F  c #6341A5",
"G  c #6A4BA7",
"H  c #6543A8",
"J  c #6946AC",
"K  c #6D4CAC",
"L  c #7C5BA4",
"P  c #7150AD",
"I  c #7E5BAD",
"U  c #724EB2",
"Y  c #744FBF",
"T  c #7553B2",
"R  c #7A54B4",
"E  c #7B59B6",
"W  c #7C56BA",
"Q  c #7F5AB9",
"!  c #662CC0",
"~  c #6A2EC2",
"^  c #6C2ECD",
"/  c #6D32C3",
"(  c #6E3AC1",
")  c #7234C6",
"_  c #743BC5",
"`  c #783EC7",
"'  c #7636C9",
"]  c #7837CA",
"[  c #773AC8",
"{  c #7B3CCA",
"}  c #6C2ED2",
"|  c #7233D1",
" . c #7342C3",
".. c #7941C6",
"X. c #7A4CC5",
"o. c #7D42CA",
"O. c #7754C0",
"+. c #7C56C3",
"@. c #8258B6",
"#. c #8553BF",
"$. c #835BBB",
"%. c #895EBD",
"&. c #8467A9",
"*. c #8766B4",
"=. c #8964B6",
"-. c #8A68B6",
";. c #8D6BB8",
":. c #906DBB",
">. c #823DCE",
",. c #843FD0",
"<. c #8344CD",
"1. c #864ACE",
"2. c #894ACD",
"3. c #8854C2",
"4. c #8459C6",
"5. c #885DC2",
"6. c #8E59CD",
"7. c #915BCF",
"8. c #8644D0",
"9. c #8945D1",
"0. c #8749D0",
"q. c #8C4BD2",
"w. c #8547DC",
"e. c #914ED4",
"r. c #8F51D2",
"t. c #8D5AD1",
"y. c #9453D5",
"u. c #9957D7",
"i. c #945ED1",
"p. c #9A5AD6",
"a. c #9751D8",
"s. c #9A55D8",
"d. c #9D5BD8",
"f. c #A15FD9",
"g. c #9162C6",
"h. c #9664CD",
"j. c #9A67CF",
"k. c #9C69CF",
"l. c #9760D3",
"z. c #9B63D4",
"x. c #9E6CD0",
"c. c #9D73D6",
"v. c #9F73D8",
"b. c #A167D6",
"n. c #A36AD6",
"m. c #A463DA",
"M. c #A966DC",
"N. c #A56CD9",
"B. c #AC6CDD",
"V. c #A572D4",
"C. c #A872D7",
"Z. c #A778D5",
"A. c #AA7CD7",
"S. c #A572DA",
"D. c #AC73DD",
"F. c #A47CDA",
"G. c #AD7ADE",
"H. c #B072DF",
"J. c #B07EDF",
"K. c #AF76E0",
"L. c #AF7EE0",
"P. c #B175E0",
"I. c #B877E2",
"U. c #B37BE2",
"Y. c #B97CE3",
"T. c #818181",
"R. c #A383D6",
"E. c #AE83D9",
"W. c #A88CD8",
"Q. c #B181DE",
"!. c #B48ADC",
"~. c #AB92D9",
"^. c #BB93DF",
"/. c #AF81E0",
"(. c #B483E3",
"). c #BA83E5",
"_. c #B68AE3",
"`. c #B98CE5",
"'. c #BA92E5",
"]. c #B798E1",
"[. c #BA9AE4",
"{. c #BFA1E5",
"}. c #C184E6",
"|. c #C587E8",
" X c #C88BE9",
".X c #C095E4",
"XX c #C49BE7",
"oX c #C79EE8",
"OX c #D592EE",
"+X c #D996F0",
"@X c #C5A4E7",
"#X c #C2ACE4",
"$X c #C5A2E8",
"%X c #C8A4E9",
"&X c #CBACEA",
"*X c #C5B2E5",
"=X c #C8B7E6",
"-X c #CDBBE8",
";X c #D0B6EC",
":X c #D2B9EE",
">X c #D8BDEF",
",X c #D6C2EE",
"<X c #DCD2EF",
"1X c #DCC6F1",
"2X c #DDCCF1",
"3X c #E0CFF3",
"4X c #E3D1F4",
"5X c #E8D5F5",
"6X c #E4DBF3",
"7X c #E9DAF6",
"8X c #ECE5F6",
"9X c #F2EBF9",
"0X c #F7F1FB",
"qX c #F9F6FC",
"wX c #FFFFFF",
"eX c None",
/* pixels */
"eXeXeXeXeXeXeXeXeXeXeXeXeXeXeXeXeXeXeXeXeXeXeXeXeXeXeXeXeXeXeXeXeXeXeXeXeXeXeXeXeXeXeXeXeXeXeXeXeXeXeXeXeXeXeXeXeXeXeXeXeXeXeXeX",
"eXeXeXeXeXeXeXeXeXeXeXeXeXeXeXeXeXeXeXeXeXeXeXeXeXeXeXeXeXeXeXeXeXeXeXeXeXeXeXeXeXeXeXeXeXeXeXeXeXeXeXeXeXeXeXeXeXeXeXeXeXeXeXeX",
"eXeXeXeXeXeXeXeXeXeXeXeXeXeXeXeXeXeXeXeXeXeXeXeXeXeXeXeXeXeXeXeXeXeXeXeXeXeXeXeXeXeXeXeXeXeXeXeXeXeXeXeXeXeXeXeXeXeXeXeXeXeXeXeX",
"eXeXeXeXeXeXeXeXeXeXq 9 8 8 8 9 9 0 0 0 0 0 0 0 0 0 e e e e e e e e T.r r r r 0 8 8 8 8 8 8 8 8 8 8 8 8 5 7 eXeXeXeXeXeXeXeXeXeX",
"eXeXeXeXeXeXeXeX9 q Z =.g.h.j.k.x.n.V.V.V.Z.A.A.A.E.E.E.!.!.!.!.!.!..X^.!.!.A.C.C.C.C.N.N.n.b.z.z.l.i.7.%.Z 6 8 eXeXeXeXeXeXeXeX",
"eXeXeXeXeXeXeX9 L 7.i.l.z.z.b.N.N.S.D.D.G.G.L.(.(.(._._._.`.`.`.`.'.'.'.`.U.U.OXU.P.D.D.B.B.B.M.m.m.f.d.p.u.y.L 5 eXeXeXeXeXeXeX",
"eXeXeXeXeXeXq %.7.i.i.z.z.z.n.N.N.S.D.D.G.G.U.(.(._._._._.`.`.'.'.'.'._.U.U.U.U.P.P.P.D.B.B.B.M.m.m.f.d.p.u.y.y.3.9 eXeXeXeXeXeX",
"eXeXeXeXeX0 $.6.7.i.l.z.z.b.n.N.S.D.D.G.G.G.(.(.(.(._._.`.`.'.'.'.'._.U.U.U.U.P.P.P.P.D.B.B.B.M.m.m.m.d.p.u.y.y.y.#.9 eXeXeXeXeX",
"eXeXeXeXw D 6.7.7.i.l.z.z.b.N.N.S.D.D.G.G.L.(.(.(._._.`.`.'.'.'.'.`.(.(.U.U.U.U.P.P.P.D.B.B.B.M.m.m.f.d.p.u.y.y.y.q.L 2 eXeXeXeX",
"eXeXeXeXe 4.6.7.i.i.l.z.z.n.N.N.S.D.D.G.L.(.(.(.(._._.`.`.'.'.'._.(.(.(.(.U.U.U.P.P.P.D.D.B.B.M.M.m.f.d.d.u.y.y.r.q.2.w eXeXeXeX",
"eXeXeXeXS 6.6.7.i.l.z.z.b.n.N.S.C.D.G.G.G.(.(.(._._.`.`.'.'.'.`.(.).(.(.(.U.U.U.P.P.P.D.D.B.B.M.m.m.f.d.p.u.y.y.r.q.0.A eXeXeXeX",
"eXeXeX> &.6.6.7.i.i.z.z.b.n.N.S.C.D.G.G.G.(.(._._._.`.`.'.'.`.).).).).(.(.U.U.U.P.P.P.D.B.B.B.M.m.m.f.d.p.u.y.y.q.q.0.I : eXeXeX",
"eXeXeX, *.6.6.7.i.l.z.z.b.n.N.N.C.D.G.G.J.(.(.(._._.`.'.'.`.(.).).).(.(.(.U.U.U.P.P.P.D.B.B.B.M.m.m.f.d.u.u.y.y.q.q.0.@.> eXeXeX",
"eXeXeX, -.6.6.7.i.l.z.z.b.n.N.S.D.D.G.G.U.(.(.(._._.`.'.`.(.(.).).).).).).(.U.U.P.P.P.D.B.B.M.M.m.m.d.d.u.y.y.e.q.0.1.@., eXeXeX",
"eXeXeX8 -.6.6.7.i.l.z.z.b.n.N.S.D.D.G.G.J.(.(._._.`.`._.(.(.(.).).).).).).).Y.U.P.P.D.B.B.B.M.M.m.m.d.p.u.y.y.q.q.0.1.@., eXeXeX",
"eXeXeX8 ;.6.6.i.i.l.z.z.b.n.N.S.D.Y.G.G.J.(.(.(._._._.(.(.(.(.(.(.).).).).).Y.U.U.P.H.B.B.B.M.m.m.d.d.u.s.y.y.q.q.0.1.$.8 eXeXeX",
"eXeXeX0 ;.6.6.7.i.i.l.z.b.n.N.S.D.).G.G.J.(.(.(._._.U.U.(.(.(.(.).).).).).).Y.U.P.P.D.B.B.M.M.m.m.d.d.u.y.y.q.q.q.0.<.$.8 eXeXeX",
"eXeXeX0 :.6.6.7.i.i.l.z.b.n.N.N.D.D.G.G.G.Q.(.(._.(.U.U.U.U.U.U.(.).).).}.|.).Y.P.P.B.B.B.M.m.m.f.d.p.u.y.y.q.q.0.1.<.$.0 eXeXeX",
"eXeXeX8 *.6.6.7.i.i.l.z.b.n.N.N.S.D.G.G.G.Q.(.(.(.P.U.U.U.U.U.U.U.Y.).). X+X}.Y.P.H.B.B.M.M.m.m.d.d.u.u.y.e.q.q.0.<.<.%.0 eXeXeX",
"eXeXeX8 T _ 1.7.i.i.l.z.b.n.N.N.S.D.D.G.G.J.Q.(.G.K.P.P.U.U.U.U.U.U.Y.).}.|.Y.I.P.H.B.B.M.m.m.f.d.p.u.y.y.q.q.0.1.<.<.%.0 eXeXeX",
"eXeXeX8 R / ) { 1.i.l.z.z.b.n.N.C.C.D.G.G.J.Q.G.D.D.G.G.P.P.P.U.U.U.U.Y.Y.Y.I.P.H.B.B.M.M.m.f.d.d.p.y.y.e.q.q.0.<.<.o.%.e eXeXeX",
"eXeXeX0 R / ) ' [ { <.r.p.b.n.N.8XqXqXqXqX0X7X%XD.D.U.qXqXqX`.P.P.oXqXqXqXP.P.5XqXqXqXqX0X7XoXd.p.u.y.y.q.q.0.1.<.<.o.%.e eXeXeX",
"eXeXeX0 R / ) ' [ { { <.<.0.y.p.9XwXwXwXwXwXwXwX>XD.G.wXwXwX`.D.D.oXwXwXwXH.B.7XwXwXwXwXwXwXwX1Xu.y.y.e.q.q.0.<.<.o.o.%.r eXeXeX",
"eXeXeXe W / ) ' [ { { <.<.q.q.q.8XwXwXwXwXwXwXwXwXU.N.wXwXwX`.D.D.XXwXwXwXB.B.7XwXwXwXwXwXwXwXwX(.y.e.q.q.0.<.<.<.o.{ 5.r eXeXeX",
"eXeXeXe Q / ) ) [ { { <.<.8.q.q.8XwXwX!.2.i.9XwXwX%Xd.wXwXwXH.f.m..XwXwXwXB.M.7XwXwX@X2.f.7XwXwX;Xy.q.q.0.<.<.<.<.{ ` 5.r eXeXeX",
"eXeXeXe @./ ) ) [ { { o.<.<.0.q.8XwXwX'.p.e.:XwXwX:Xd.wXwXwXD.d.d.`.wXwXwXf.m.7XwXwX&Xd.p.&XwXwX1Xq.q.0.<.<.<.o.{ ` ` 5.r eXeXeX",
"eXeXeXe $./ ) ) [ [ { o.<.<.0.q.8XwXwX'.y.q.:XwXwX:Xd.wXwXwXD.s.s._.wXwXwXa.a.4XwXwX&Xp.u.&XwXwX4Xq.0.1.<.<.<.{ { ` [ %.r eXeXeX",
"eXeXeXr $./ / ) _ [ { { <.<.1.0.8XwXwX'.q.q.:XwXwX:Xu.wXwXwXS.a.a.(.wXwXwXa.a.4XwXwX&Xu.y.&XwXwX4X0.9.<.<.<.o.{ { [ _ %.T.eXeXeX",
"eXeXeXr $./ / ) _ [ { { <.<.1.0.8XwXwX'.9.9.;XwXwX:Xu.wXwXwXN.y.y.(.wXwXwXe.e.4XwXwX$Xq.e.%XwXwX4X9.<.<.<.{ { { [ _ ) $.T.eXeXeX",
"eXeXeXr $./ / ) _ [ ` { o.<.<.1.8XwXwX_.8.9.,XwXwX&Xy.wXwXwXXX(.(.&XwXwXwXe.q.4XwXwX$X9.9.&XwXwX,X<.<.<.{ { { [ _ ) / $.T.eXeXeX",
"eXeXeXr $./ / ( _ [ ` { o.<.<.1.8XwXwX@XS._.qXwXwX_.y.wXwXwXwXwXwXwXwXwXwXq.q.4XwXwX:XS./.9XwXwX{.<.<.o.{ { [ [ ) ) / $.T.eXeXeX",
"eXeXeXr $./ / / _ _ [ ` o.o.<.1.8XwXwXwXwXwXwXwXqXq.q.wXwXwXwXwXwXwXwXwXwX9.9.4XwXwXwXwXwXwXwXwXt.<.o.{ { [ [ ) ) / / $.T.eXeXeX",
"eXeXeXr $./ / / ) _ _ ` o.o.<.<.8XwXwXwXwXwXwXqXc.8.q.wXwXwX-X#X#X,XwXwXwX9.9.3XwXwXwXwXwXwXwXR.] { { { [ [ ) ) / / / $.T.eXeXeX",
"eXeXeXr Q N / / ( _ _ ` ..o.<.<.8XwXwX<X=X*XW.o.{ >.0.wXwXwXl.>.>.F.wXwXwX8.,.3XwXwX6X=X*X~.X.) ' ' { [ ' ) ) / / / / Q T.eXeXeX",
"eXeXeXr Q N / / ( _ _ ` ` ..o.<.8XwXwXF.) ) { { { >.0.wXwXwXz.>.>.G.wXwXwX>.>.2XwXwX[.) ) ' ] ' ' ) ) ' ) ) / / / / M W T.eXeXeX",
"eXeXeXr Q N B / ( _ _ _ ` ..o.o.8XwXwXF.] ] ] { { { <.wXwXwXi.>.>.F.wXwXwX{ { 2XwXwX[.] ] ] ' ' ) ) / ) ) / / / ~ ! M W r eXeXeX",
"eXeXeXr Q N N B ( ( _ _ ` ....o.8XwXwXF.' ' ] ] ] { <.wXwXwXi.{ { S.wXwXwX{ { 2XwXwX[.' ' ' ) ) ) / / ~ / / / ~ ! M | 4.r eXeXeX",
"eXeXeXr E N N B ( ( _ _ ` ....o.8XwXwXF.' ' ' ' ' ] o.wXwXwXi.{ { S.wXwXwX] ] 2XwXwX[.' ' ) ) / ) / ~ ~ ~ / ~ M M M ! W r eXeXeX",
"eXeXeXr E N N B ( ( ( _ _ ` ....8XwXwXF.) ) ) ' ' ' o.wXwXwXt.] ] S.wXwXwX] ' 2XwXwX[.) ) ) / / ~ ~ ~ ! ! ! M M M M n T r eXeXeX",
"eXeXeXe E N N B B ( ( _ _ ` ..) 8XwXwXF./ / ) ) ) ) { wXwXwXt.' ' v.wXwXwX' ) 2XwXwX].) ) / / ~ ~ ~ ! ! M M M M M n n U e eXeXeX",
"eXeXeXe R N N N B V ( ( _ _ _ ! 8XwXwXF.~ / / / ) ) ` wXwXwXt.) ) c.wXwXwX) ) 2XwXwX]./ / ~ ~ ~ ~ ! ! M M M M M n n b U e eXeXeX",
"eXeXeXe R M N N B V ( ( _ _ M M Y O.O.( ~ ~ ~ / / / / +.+.+._ ) ) _ +.+.+./ / X.+.+. .~ ~ ~ ~ ! ! M M M M n n n n b x K e eXeXeX",
"eXeXeX0 T M N N B B _ ( _ N M M M ! ! ! ~ ~ ~ ~ ~ ~ ~ / / / / / / / / / / / ~ ~ ~ ~ ~ ~ ! ! ! ! M M M M n n b b b x x J 0 eXeXeX",
"eXeXeX0 T M N N B ( w.( N n M M M M M ! ! ! ! ~ ~ ~ ~ ~ ~ ~ ~ ~ ~ ~ ~ ~ ~ ~ ~ ~ ~ ! ! ! ! ! M M M M M n n b b b x v z J 0 eXeXeX",
"eXeXeX0 P M N N N B V N b n n M M M M M M M ! ! ! ! ! ~ ~ ~ ~ ~ ~ ~ ~ ~ ! ! ! ! ! ! ! M M M M M M n n n b b x x v z z H 8 eXeXeX",
"eXeXeX9 P M N N N B M b b b n n n M M M M M M M M ! ! ! ! ! ! ! ! ! ! ! ! ! ! M M M M M M M M M n n b b b x v v z z z F 8 eXeXeX",
"eXeXeX8 K n N N N n v v b b b b ! M n n M M M M M M M M M M M M M M M M M M M M M M M M M n n n n b b x v v v z z z z m , eXeXeX",
"eXeXeX, K n N M x v v v v v b b b b n n n n M M ^ M M M M M M M M M M M M M M M M M n n ! n b b b b x v v v z z z z z k > eXeXeX",
"eXeXeX, G n c z z z v v v b b v b b b b b n n n ^ M M M M M M M M M M M M M M n n n n n } b b x x v v v v z z z z z z k : eXeXeX",
"eXeXeX> F z z z z z z z v v v v v v b b b b b b b n n n n n n n n n n n n n n n b b b b b b x v v v v z z z z z z z z d : eXeXeX",
"eXeXeX- d z z z z z z z z v v v v v v v v b b b b b b b b b b b b b b b b b b b b b x x v v v v v z z z z z z z z z l s - eXeXeX",
"eXeXeX= d z z z z z z z z z z v v v v v v v v v x b b b b b b b b b b b b x b b x v v v v v v z z z v z z z z z l l l a = eXeXeX",
"eXeXeXO C z z z z z z z z z z z z z v v v v v v v v v v v v v x x x v v v v v v v v v v z z z z z z z z z z z l l l l u O eXeXeX",
"eXeXeXeX4 z z z z z z z z z z z z z z z z v v v v v v v v v v v v v v v v v v v z z z z z z z z z z z z z l l l l l h 3 eXeXeXeX",
"eXeXeXeX: j z z z z z z z z z z z z z z z z z z z z z z z z z z z z z z z z z z z z z z z z z z z z l l l l l l l f g ; eXeXeXeX",
"eXeXeXeXo 1 z z z z z z z z z z z z z z z z z z z z z z z z z z z z z z z z z z z z z z z z z z z l l l l l l h f f < o eXeXeXeX",
"eXeXeXeXeX+ y z z z z z z z z z z z z z z z z z z z z z z z z z z z z z z z z z z z z z z z z z l l l l l h h f f t + eXeXeXeXeX",
"eXeXeXeXeXeX= * z z z z z z z z z z z z z z z z z z z z z z z z z z z z z z z z z z z z z z z l l l l h h f f f * + eXeXeXeXeXeX",
"eXeXeXeXeXeXeXO $ p z z z z z z z z z z z z z z z z z z z z z z z z z z z z z z z z z z z l l l l l h h f f i # O   eXeXeXeXeXeX",
"eXeXeXeXeXeXeXeXX + @ & * * * * * * * * * * * * * * * * * * * * * * * * * * * * * * * * * * * * * * * * % @ O X eXeXeXeXeXeXeXeX",
"eXeXeXeXeXeXeXeXeXeX. X o o o o o o o o o o o o o o o o o o o o o o o o o o o o o o o o o o o o o o o X X . eXeXeXeXeXeXeXeXeXeX",
"eXeXeXeXeXeXeXeXeXeXeXeXeXeXeXeXeXeXeXeXeXeXeXeXeXeXeXeXeXeXeXeXeXeXeXeXeXeXeXeXeXeXeXeXeXeXeXeXeXeXeXeXeXeXeXeXeXeXeXeXeXeXeXeX",
"eXeXeXeXeXeXeXeXeXeXeXeXeXeXeXeXeXeXeXeXeXeXeXeXeXeXeXeXeXeXeXeXeXeXeXeXeXeXeXeXeXeXeXeXeXeXeXeXeXeXeXeXeXeXeXeXeXeXeXeXeXeXeXeX",
"eXeXeXeXeXeXeXeXeXeXeXeXeXeXeXeXeXeXeXeXeXeXeXeXeXeXeXeXeXeXeXeXeXeXeXeXeXeXeXeXeXeXeXeXeXeXeXeXeXeXeXeXeXeXeXeXeXeXeXeXeXeXeXeX"
};
